# xmcd
#
# Track frame offsets:
#        150
#        6620
#        24233
#        45258
#        68048
#        85498
#        107910
#        135565
#        158640
#        161493
#        182930
#        192235
#        213800
#        230075
#        255008
#        263123
#
# Disc length: 3799 seconds
#
# Revision: 0
# Processed by: cddbd v1.5.1PL0 Copyright (c) Steve Scherf et al.
# Submitted via: ExactAudioCopy v0.95b2
#
DISCID=cd0ed510
DTITLE=grooveline - The Missing Key
DYEAR=2005
DGENRE=Jazz+Funk
TTITLE0=Connect
TTITLE1=Dark July(feat. rah-d, maru)
TTITLE2=Box(feat. maru)
TTITLE3=Just Positive
TTITLE4=Mayonaise
TTITLE5=Notice(feat. "uMr")
TTITLE6=Meditation
TTITLE7=2 Late(feat. yu sakai)
TTITLE8=The New Song
TTITLE9=Wake Me Up(feat. maru)
TTITLE10=Backyard BBQ
TTITLE11=Trust
TTITLE12=What U Really Want
TTITLE13=Dig 4 Space
TTITLE14=Disconnect
TTITLE15=2 Late - DJ Mitsu the Beats Remix
EXTD=
EXTT0=
EXTT1=
EXTT2=
EXTT3=
EXTT4=
EXTT5=
EXTT6=
EXTT7=
EXTT8=
EXTT9=
EXTT10=
EXTT11=
EXTT12=
EXTT13=
EXTT14=
EXTT15=
PLAYORDER=
